<svg width="19" height="17" viewBox="0 0 19 17" fill="none" xmlns="http://www.w3.org/2000/svg">
<path d="M 9 11 Z M 11.25 0.75 L 5.6413 6.3587 C 5.3087 6.6913 5.125 7.1375 5.125 7.6013 V 14.4525 C 5.125 15.5812 6.0438 16.5 7.1725 16.5 H 14.26 C 14.8813 16.5 15.45 16.1763 15.765 15.6513 L 18.1012 10.27 C 18.1975 10.0513 18.25 9.815 18.25 9.57 V 8.625 C 18.25 7.6625 17.4625 6.875 16.5 6.875 H 11.6875 L 12.4925 2.8062 C 12.5363 2.6138 12.51 2.4038 12.4225 2.2287 C 12.2213 1.835 11.9675 1.4763 11.6525 1.1612 L 11.25 0.75 Z M 2.5 6.875 H 0.75 V 16.5 H 2.5 C 2.9813 16.5 3.375 16.1063 3.375 15.625 V 7.75 C 3.375 7.2687 2.9813 6.875 2.5 6.875 Z" fill="#323232"/>
</svg>
